<svg width="37" height="37" viewBox="0 0 37 37" fill="none" xmlns="http://www.w3.org/2000/svg">
<rect x="0.916687" y="0.75" width="35.5" height="35.5" rx="17.75" fill="#F1F1ED"/>
<rect x="0.916687" y="0.75" width="35.5" height="35.5" rx="17.75" stroke="#D5D4D4" stroke-width="0.5"/>
<path fill-rule="evenodd" clip-rule="evenodd" d="M15.697 19.4698C14.0569 17.8297 14.0569 15.1705 15.697 13.5304L18.6667 10.5607L21.6364 13.5304C23.2765 15.1705 23.2765 17.8297 21.6364 19.4698C19.9963 21.1099 17.3371 21.1099 15.697 19.4698ZM14.6364 12.4697C12.4105 14.6956 12.4105 18.3045 14.6364 20.5304C16.8623 22.7563 20.4711 22.7563 22.697 20.5304C24.9229 18.3045 24.9229 14.6956 22.697 12.4698L19.5933 9.36597C19.0815 8.85425 18.2519 8.85425 17.7401 9.36597L14.6364 12.4697ZM11.4167 18.5001C11.4167 18.9143 11.0809 19.2501 10.6667 19.2501H8.66669C8.25247 19.2501 7.91669 18.9143 7.91669 18.5001C7.91669 18.0859 8.25247 17.7501 8.66669 17.7501H10.6667C11.0809 17.7501 11.4167 18.0859 11.4167 18.5001ZM29.4167 18.5001C29.4167 18.9143 29.0809 19.2501 28.6667 19.2501H26.6667C26.2525 19.2501 25.9167 18.9143 25.9167 18.5001C25.9167 18.0859 26.2525 17.7501 26.6667 17.7501H28.6667C29.0809 17.7501 29.4167 18.0859 29.4167 18.5001ZM10.2342 27.0008C10.5113 26.693 10.4863 26.2187 10.1784 25.9416C9.87053 25.6646 9.39632 25.6895 9.11922 25.9974L9.10922 26.0085C8.83213 26.3164 8.85709 26.7906 9.16497 27.0677C9.47285 27.3448 9.94707 27.3198 10.2242 27.012L10.2342 27.0008ZM13.1784 21.9416C13.4863 22.2187 13.5113 22.693 13.2342 23.0008L13.2242 23.0119C12.9471 23.3198 12.4729 23.3448 12.165 23.0677C11.8571 22.7906 11.8321 22.3164 12.1092 22.0085L12.1192 21.9974C12.3963 21.6895 12.8705 21.6645 13.1784 21.9416ZM16.2342 27.0008C16.5113 26.693 16.4863 26.2187 16.1784 25.9416C15.8705 25.6646 15.3963 25.6895 15.1192 25.9974L15.1092 26.0085C14.8321 26.3164 14.8571 26.7906 15.165 27.0677C15.4729 27.3448 15.9471 27.3198 16.2242 27.012L16.2342 27.0008ZM22.1784 25.9416C22.4863 26.2187 22.5113 26.693 22.2342 27.0008L22.2242 27.012C21.9471 27.3198 21.4729 27.3448 21.165 27.0677C20.8571 26.7906 20.8321 26.3164 21.1092 26.0085L21.1192 25.9974C21.3963 25.6895 21.8705 25.6646 22.1784 25.9416ZM25.2342 23.0008C25.5113 22.693 25.4863 22.2187 25.1784 21.9416C24.8705 21.6645 24.3963 21.6895 24.1192 21.9974L24.1092 22.0085C23.8321 22.3164 23.8571 22.7906 24.165 23.0677C24.4729 23.3448 24.9471 23.3198 25.2242 23.0119L25.2342 23.0008ZM28.1784 25.9416C28.4863 26.2187 28.5113 26.693 28.2342 27.0008L28.2242 27.012C27.9471 27.3198 27.4729 27.3448 27.165 27.0677C26.8571 26.7906 26.8321 26.3164 27.1092 26.0085L27.1192 25.9974C27.3963 25.6895 27.8705 25.6646 28.1784 25.9416Z" fill="#1A1C1E"/>
</svg>
