<svg width="37" height="37" viewBox="0 0 37 37" fill="none" xmlns="http://www.w3.org/2000/svg">
<rect x="0.583252" y="0.75" width="35.5" height="35.5" rx="17.75" fill="#F1F1ED"/>
<rect x="0.583252" y="0.75" width="35.5" height="35.5" rx="17.75" stroke="#D5D4D4" stroke-width="0.5"/>
<path fill-rule="evenodd" clip-rule="evenodd" d="M13.9333 8.75C13.1877 8.75 12.5833 9.35441 12.5833 10.1V12.75H11.3333C9.81447 12.75 8.58325 13.9812 8.58325 15.5V24.5C8.58325 26.0188 9.81447 27.25 11.3333 27.25H25.3333C26.852 27.25 28.0833 26.0188 28.0833 24.5V15.5C28.0833 13.9812 26.852 12.75 25.3333 12.75H24.0833V10.1C24.0833 9.35442 23.4788 8.75 22.7333 8.75H13.9333ZM22.5833 12.75V10.25H19.0833V12.75H22.5833ZM17.5833 12.75H17.0833V10.25H17.5833V12.75ZM15.5833 12.75V10.25H14.0833V12.75H15.5833ZM10.0833 15.5C10.0833 14.8096 10.6429 14.25 11.3333 14.25H25.3333C26.0236 14.25 26.5833 14.8096 26.5833 15.5V24.5C26.5833 25.1904 26.0236 25.75 25.3333 25.75H11.3333C10.6429 25.75 10.0833 25.1904 10.0833 24.5V15.5ZM22.8333 18.75C23.5236 18.75 24.0833 19.3096 24.0833 20C24.0833 20.6904 23.5236 21.25 22.8333 21.25C22.1429 21.25 21.5833 20.6904 21.5833 20C21.5833 19.3096 22.1429 18.75 22.8333 18.75Z" fill="#1A1C1E"/>
</svg>
