<svg width="37" height="37" viewBox="0 0 37 37" fill="none" xmlns="http://www.w3.org/2000/svg">
<rect x="0.583252" y="0.75" width="35.5" height="35.5" rx="17.75" fill="#F1F1ED"/>
<rect x="0.583252" y="0.75" width="35.5" height="35.5" rx="17.75" stroke="#D5D4D4" stroke-width="0.5"/>
<path fill-rule="evenodd" clip-rule="evenodd" d="M15.2244 15.623L12.8633 13.2619L11.1817 13.8224C10.8482 13.9336 10.4823 13.7982 10.3014 13.4968L8.18009 9.96123C8.00303 9.66613 8.04953 9.28838 8.29288 9.04503L9.70709 7.63082C9.95044 7.38747 10.3282 7.34097 10.6233 7.51803L14.1588 9.63935C14.4603 9.82021 14.5956 10.1862 14.4845 10.5196L13.9239 12.2012L15.2033 13.4806C15.3756 12.1496 15.9117 10.8601 16.9139 9.85782C17.9216 8.85007 19.3202 8.26377 20.6846 8.06554C22.0407 7.8685 23.4734 8.03984 24.5476 8.68437C24.7457 8.80319 24.8779 9.00663 24.9061 9.23585C24.9343 9.46507 24.8554 9.69451 24.6921 9.85782L21.8434 12.7065L21.6668 14.6509L23.6112 14.4742L26.4598 11.6256C26.6232 11.4623 26.8526 11.3833 27.0818 11.4115C27.311 11.4398 27.5145 11.572 27.6333 11.77C28.2778 12.8443 28.4492 14.2769 28.2521 15.6331C28.0539 16.9974 27.4676 18.396 26.4598 19.4038C25.9748 19.8888 25.4224 20.2647 24.8306 20.543L27.9346 23.647C29.0086 24.7209 29.0086 26.4621 27.9346 27.536C26.8607 28.61 25.1195 28.61 24.0456 27.536L18.359 21.8495L12.6712 27.5373C11.5973 28.6113 9.85608 28.6113 8.78214 27.5373C7.7082 26.4634 7.7082 24.7222 8.78214 23.6482L15.5194 16.911C15.3881 16.4985 15.2885 16.066 15.2244 15.623ZM17.1302 17.1782C17.1144 17.3459 17.0423 17.5094 16.9139 17.6378L9.8428 24.7089C9.35465 25.1971 9.35465 25.9885 9.8428 26.4767C10.331 26.9648 11.1224 26.9648 11.6106 26.4767L18.6493 19.4379C18.8519 19.2082 19.1839 19.1175 19.4857 19.2358C21.4532 20.0069 23.9325 19.8097 25.3992 18.3431C26.131 17.6113 26.6053 16.5351 26.7677 15.4174C26.868 14.7273 26.8436 14.0632 26.7139 13.4929L24.4798 15.7269C24.3558 15.851 24.1921 15.9276 24.0174 15.9435L20.9063 16.2261C20.6847 16.2463 20.4655 16.1669 20.3081 16.0095C20.1508 15.8522 20.0714 15.633 20.0915 15.4113L20.3741 12.3003C20.39 12.1256 20.4667 11.9619 20.5907 11.8378L22.8248 9.6038C22.2544 9.47405 21.5904 9.44968 20.9002 9.54996C19.7826 9.71234 18.7063 10.1867 17.9746 10.9185C16.5079 12.3851 16.3107 14.8644 17.0819 16.832C17.1265 16.9459 17.1414 17.0642 17.1302 17.1782ZM19.4395 20.8087L25.1062 26.4754C25.5944 26.9635 26.3858 26.9635 26.874 26.4754C27.3621 25.9872 27.3621 25.1958 26.874 24.7076L23.2207 21.0543C21.9474 21.289 20.6135 21.1765 19.4395 20.8087ZM12.4729 11.8109L11.2781 12.2091L9.76761 9.69162L10.3537 9.10555L12.8712 10.6161L12.4729 11.8109Z" fill="#1A1C1E"/>
</svg>
