<svg width="37" height="37" viewBox="0 0 37 37" fill="none" xmlns="http://www.w3.org/2000/svg">
<rect x="0.916687" y="0.75" width="35.5" height="35.5" rx="17.75" fill="#F1F1ED"/>
<rect x="0.916687" y="0.75" width="35.5" height="35.5" rx="17.75" stroke="#D5D4D4" stroke-width="0.5"/>
<path fill-rule="evenodd" clip-rule="evenodd" d="M9.45129 17.6943C9.43419 17.8924 9.42334 18.0924 9.41894 18.2939L9.42302 18.2954L14.923 20.2954C15.293 20.4299 15.496 20.8277 15.3879 21.2062L14.4516 24.4831L15.3344 27.1316C16.3683 27.531 17.4919 27.75 18.6667 27.75C20.173 27.75 21.5953 27.3899 22.8521 26.7512L22.5109 25.0455L20.3881 24.1964C20.1034 24.0825 19.9167 23.8067 19.9167 23.5V20C19.9167 19.6772 20.1233 19.3906 20.4295 19.2885L23.4295 18.2885C23.5325 18.2542 23.6416 18.2426 23.7495 18.2546L27.9142 18.7173C27.9158 18.6451 27.9167 18.5726 27.9167 18.5C27.9167 18.2285 27.905 17.9597 27.8821 17.6941C27.865 17.6871 27.8481 17.6794 27.8313 17.671L25.9896 16.7502H24.3111L21.9452 17.6966C21.7142 17.789 21.4523 17.7608 21.2462 17.6213C21.0401 17.4817 20.9167 17.2491 20.9167 17.0002V14.0002C20.9167 13.627 21.1911 13.3105 21.5606 13.2577L24.6018 12.8233L24.9552 11.763C24.9591 11.7512 24.9633 11.7395 24.9678 11.7281C23.3161 10.1905 21.1012 9.25 18.6667 9.25C17.7636 9.25 16.8907 9.37943 16.0655 9.62075L16.8375 11.1648C16.9579 11.4055 16.94 11.6922 16.7908 11.9162L14.7908 14.9162C14.6804 15.0817 14.5089 15.1966 14.3138 15.2356L11.9927 15.6998L9.63524 17.5858C9.57791 17.6317 9.51593 17.6678 9.45129 17.6943ZM9.94206 15.4194L11.1982 14.4145C11.2918 14.3396 11.4021 14.2882 11.5196 14.2647L13.715 13.8257L15.3012 11.4463L14.6586 10.1611C12.4693 11.2153 10.7588 13.1064 9.94206 15.4194ZM26.118 13.018C26.7397 13.8617 27.2216 14.8148 27.5294 15.843L26.5021 15.3294C26.398 15.2773 26.2831 15.2502 26.1667 15.2502H24.1667C24.0713 15.2502 23.9767 15.2684 23.8881 15.3038L22.4167 15.8924V14.6507L25.2728 14.2427C25.554 14.2025 25.7884 14.0069 25.8782 13.7374L26.118 13.018ZM27.7591 20.2093L23.7476 19.7636L21.4167 20.5406V22.9922L23.4452 23.8036C23.6806 23.8978 23.8524 24.1044 23.9021 24.3529L24.2123 25.9039C26.0278 24.542 27.3259 22.5279 27.7591 20.2093ZM13.4145 26.1153C11.3709 24.7032 9.92352 22.4897 9.5264 19.9291L13.7536 21.4662L12.9456 24.2942C12.904 24.4395 12.9074 24.594 12.9552 24.7374L13.4145 26.1153ZM7.91669 18.5C7.91669 12.5629 12.7296 7.75 18.6667 7.75C24.6037 7.75 29.4167 12.5629 29.4167 18.5C29.4167 24.4371 24.6037 29.25 18.6667 29.25C12.7296 29.25 7.91669 24.4371 7.91669 18.5Z" fill="#1A1C1E"/>
</svg>
