<svg version="1.2" xmlns="http://www.w3.org/2000/svg" viewBox="0 0 34 33" width="34" height="33"><style>.a{opacity:.1;fill:#fff}.b{fill:#fff}</style><path fill-rule="evenodd" class="a" d="m9 0.5h16c4.4 0 8 3.6 8 8v16c0 4.4-3.6 8-8 8h-16c-4.4 0-8-3.6-8-8v-16c0-4.4 3.6-8 8-8z"/><path fill-rule="evenodd" class="b" d="m15.3 14.5h2.5v1.2c0.3-0.7 1.2-1.3 2.6-1.3 2.6 0 3.3 1.4 3.3 4v4.8h-2.7v-4.2c0-1.5-0.4-2.3-1.3-2.3-1.2 0-1.7 0.8-1.7 2.3v4.2h-2.7zm-4.6-0.1h2.7v8.6h-2.7zm3.1-2.8q0 0.3-0.2 0.7-0.1 0.3-0.3 0.5c-0.4 0.3-0.8 0.5-1.3 0.5-0.4 0-0.8-0.2-1.2-0.5q-0.2-0.2-0.3-0.5-0.2-0.4-0.2-0.7c0-0.4 0.2-0.9 0.5-1.2 0.4-0.3 0.8-0.5 1.2-0.5 0.5 0 0.9 0.2 1.3 0.5 0.3 0.3 0.5 0.8 0.5 1.2z"/></svg>