<svg version="1.2" xmlns="http://www.w3.org/2000/svg" viewBox="0 0 34 33" width="34" height="33"><style>.a{opacity:.1;fill:#fff}.b{fill:#fff}</style><path fill-rule="evenodd" class="a" d="m9 0.5h16c4.4 0 8 3.6 8 8v16c0 4.4-3.6 8-8 8h-16c-4.4 0-8-3.6-8-8v-16c0-4.4 3.6-8 8-8z"/><path class="b" d="m25 12.5q0.1 0.6 0.2 1.6 0.1 1 0.1 1.7v0.7q0 2.7-0.3 4-0.3 1.2-1.5 1.5-0.5 0.1-2.2 0.2-1.6 0.1-3 0.1h-1.3q-5.2 0-6.5-0.3-1.2-0.3-1.5-1.5-0.1-0.6-0.2-1.6-0.1-1-0.1-1.7v-0.7q0-2.7 0.3-4 0.3-1.2 1.5-1.5 0.5-0.1 2.2-0.2 1.6-0.1 3-0.1h1.3q5.2 0 6.5 0.3 1.2 0.3 1.5 1.5zm-9.7 6.5l4.4-2.5-4.4-2.5z"/></svg>