<svg width="58.733505" height="34.000069" viewBox="0 0 58.7335 34.0001" fill="none" xmlns="http://www.w3.org/2000/svg" xmlns:xlink="http://www.w3.org/1999/xlink">
	<desc>
			Created with Pixso.
	</desc>
	<defs/>
	<path id="Rectangle 40029" d="M47.04 4.62C47.04 2.06 49.11 0 51.66 0L52.33 0C52.74 0 53.08 0.33 53.08 0.75L53.08 12.3L47.04 12.3L47.04 4.62Z" fill="#00E590" fill-opacity="1.000000" fill-rule="nonzero"/>
	<path id="Rectangle 40030" d="M47.04 8.24C47.04 6.94 48.1 5.88 49.4 5.88L57.97 5.88C58.39 5.88 58.73 6.22 58.73 6.63L58.73 7.77C58.73 10.27 56.7 12.3 54.2 12.3L47.04 12.3L47.04 8.24Z" fill="#00E590" fill-opacity="1.000000" fill-rule="nonzero"/>
	<path id="Rectangle 40031" d="M47.04 8.24C47.04 6.94 48.1 5.88 49.4 5.88L53.08 5.88L53.08 9.94C53.08 11.24 52.02 12.3 50.72 12.3L47.04 12.3L47.04 8.24Z" fill="#009984" fill-opacity="1.000000" fill-rule="nonzero"/>
	<path id="arti" d="M43.1 33.78Q39.78 33.78 37.83 32.15Q37.65 32 37.49 31.85C36.17 30.53 35.52 28.71 35.52 26.38L35.52 18.41L32.17 18.41L32.17 13.67L32.35 13.67C33.37 13.67 34.15 13.42 34.68 12.91C35.24 12.4 35.52 11.63 35.52 10.61L35.52 9.15L40.98 9.15L40.98 13.67L45.65 13.67L45.65 18.41L40.98 18.41L40.98 26.02C40.98 26.7 41.1 27.27 41.35 27.73C41.59 28.17 41.97 28.5 42.48 28.71C42.99 28.93 43.62 29.04 44.37 29.04C44.54 29.04 44.73 29.03 44.95 29C45.17 28.98 45.4 28.96 45.65 28.93L45.65 33.56C45.28 33.61 44.87 33.66 44.41 33.7C43.95 33.75 43.51 33.78 43.1 33.78ZM3.24 33.3C4.28 33.76 5.52 34 6.95 34Q8.55 34 9.87 33.56C10.74 33.29 11.53 32.88 12.23 32.32C12.47 32.12 12.7 31.91 12.93 31.68L12.93 33.56L18.03 33.56L18.03 20.45C18.03 19.01 17.66 17.76 16.93 16.69C16.23 15.6 15.23 14.75 13.95 14.14Q12.02 13.23 9.5 13.23Q7.39 13.23 5.6 13.89Q3.84 14.54 2.58 15.72Q2.57 15.72 2.56 15.73Q2.55 15.74 2.54 15.75Q1.98 16.28 1.55 16.91Q1.01 17.69 0.69 18.62L5.06 20.7Q5.37 19.89 5.91 19.27L5.91 19.27Q6.24 18.89 6.66 18.59Q7.07 18.3 7.52 18.11L7.52 18.11L7.52 18.11Q8.32 17.79 9.25 17.79Q10.76 17.79 11.63 18.53Q11.63 18.54 11.64 18.54Q11.64 18.55 11.65 18.55Q12.17 18.99 12.39 19.55L12.39 19.55Q12.56 19.96 12.56 20.45L12.56 20.98L7.06 21.87C5.48 22.11 4.16 22.52 3.09 23.1C2.05 23.69 1.27 24.42 0.76 25.29C0.25 26.14 0 27.12 0 28.24C0 29.43 0.27 30.46 0.83 31.34Q0.96 31.53 1.11 31.71L1.11 31.71Q1.91 32.72 3.24 33.3ZM12.56 24.99L12.56 20.98L13.14 20.88L13.14 24.89L12.56 24.99ZM12.56 24.99L12.56 25.62C12.56 26.42 12.37 27.16 11.98 27.84C11.61 28.5 11.09 29.02 10.41 29.41L10.41 29.41L10.41 29.41Q10.4 29.41 10.39 29.42Q9.38 29.99 8.04 29.99C7.36 29.99 6.79 29.82 6.33 29.48C5.87 29.14 5.64 28.67 5.64 28.06Q5.64 27.3 6 26.83Q6.12 26.68 6.26 26.56C6.67 26.2 7.27 25.95 8.04 25.8L12.56 24.99ZM12.93 31.68L12.93 30.35L14.16 30.13Q13.58 31 12.93 31.68ZM19.48 13.67L19.48 33.56L24.95 33.56L24.95 22.85C24.95 21.37 25.36 20.23 26.18 19.43C27.01 18.6 28.09 18.19 29.43 18.19L31.14 18.19L31.14 13.45L29.97 13.45Q27.9 13.45 26.37 14.36Q25.23 15.03 24.58 16.63L24.58 13.67L19.48 13.67ZM24.58 16.63L24.58 18.44L24.22 17.75Q24.38 17.14 24.58 16.63ZM47.03 13.67L47.03 33.56L52.49 33.56L52.49 13.67L47.03 13.67Z" fill="#FFFFFF" fill-opacity="1.000000" fill-rule="evenodd"/>
</svg>
